<?xml version="1.0" encoding="utf-8"?>
<!-- Generator: Adobe Illustrator 16.2.0, SVG Export Plug-In . SVG Version: 6.00 Build 0)  -->
<!DOCTYPE svg PUBLIC "-//W3C//DTD SVG 1.1//EN" "http://www.w3.org/Graphics/SVG/1.1/DTD/svg11.dtd">
<svg version="1.1" id="Слой_1" xmlns="http://www.w3.org/2000/svg" xmlns:xlink="http://www.w3.org/1999/xlink" x="0px" y="0px"
	 width="380px" height="216px" viewBox="0 0 380 216" enable-background="new 0 0 380 216" xml:space="preserve">
<g>
	<polygon fill="#FFFFFF" points="276.25,140 60.25,140 60.25,76 276.25,76 276.25,9.657 374.593,108 276.25,206.343 	"/>
	<path fill="#8E2100" d="M280.25,19.157l88.687,88.765l-88.687,88.765V144v-8h-8h-208V80h208h8v-8V19 M272.25,0v72h-216v72h216v72
		l108-108L272.5,0.25L272.25,0L272.25,0z"/>
</g>
<g>
	<rect x="4.25" y="76" fill="#8E2100" width="48" height="64"/>
	<path fill="#8E2100" d="M48.25,80v56h-40V80H48.25 M56.25,72h-56v72h56V72L56.25,72z"/>
</g>
</svg>
