<?xml version="1.0" encoding="utf-8"?>
<!-- Generator: Adobe Illustrator 16.2.0, SVG Export Plug-In . SVG Version: 6.00 Build 0)  -->
<!DOCTYPE svg PUBLIC "-//W3C//DTD SVG 1.1//EN" "http://www.w3.org/Graphics/SVG/1.1/DTD/svg11.dtd">
<svg version="1.1" id="Слой_1" xmlns="http://www.w3.org/2000/svg" xmlns:xlink="http://www.w3.org/1999/xlink" x="0px" y="0px"
	 width="360px" height="216px" viewBox="0 0 360 216" enable-background="new 0 0 360 216" xml:space="preserve">
<g>
	<polygon fill="#FFFFFF" points="256,140 40,140 40,76 256,76 256,9.657 354.343,108 256,206.343 	"/>
	<path fill="#F9DA36" d="M260,19.157l88.687,88.765L260,196.687V144v-8h-8H44V80h208h8v-8V19 M252,0v72H36v72h216v72l108-108
		L252.25,0.25L252,0L252,0z"/>
</g>
<g>
	<rect x="4" y="76" fill="#F9DA36" width="28" height="64"/>
	<path fill="#F9DA36" d="M28,80v56H8V80H28 M36,72H0v72h36V72L36,72z"/>
</g>
</svg>
